<svg width="26" height="22" viewBox="0 0 26 22" fill="none" xmlns="http://www.w3.org/2000/svg">
<path d="M22.9923 5.8762C23.0082 6.09976 23.0082 6.32322 23.0082 6.54661C23.0082 13.3625 17.8205 21.2158 8.33904 21.2158C5.41796 21.2158 2.70448 20.3699 0.421875 18.9014C0.836844 18.9492 1.2359 18.9652 1.66689 18.9652C4.07713 18.9652 6.29591 18.1512 8.06768 16.7626C5.80105 16.7146 3.90153 15.2301 3.24714 13.1869C3.56641 13.2348 3.88562 13.2667 4.22085 13.2667C4.68378 13.2667 5.14677 13.2028 5.57765 13.0912C3.21531 12.6123 1.44344 10.5372 1.44344 8.03116V7.96734C2.12977 8.35043 2.92798 8.58985 3.77384 8.62179C2.38516 7.69593 1.47537 6.11568 1.47537 4.32794C1.47537 3.37009 1.73071 2.4923 2.17767 1.72608C4.71566 4.85464 8.53066 6.89782 12.8084 7.12127C12.7287 6.73818 12.6807 6.33924 12.6807 5.94008C12.6807 3.09884 14.9794 0.784302 17.8365 0.784302C19.321 0.784302 20.6618 1.40681 21.6036 2.4124C22.7688 2.18901 23.886 1.75796 24.8758 1.16739C24.4927 2.36461 23.6786 3.37015 22.6092 4.00862C23.6468 3.89695 24.6524 3.60951 25.5781 3.21051C24.8758 4.23208 23.9978 5.14191 22.9923 5.8762Z" fill="white"/>
</svg>
