<svg width="26" height="18" viewBox="0 0 26 18" fill="none" xmlns="http://www.w3.org/2000/svg">
<path d="M25.0524 2.92358C24.763 1.83426 23.9106 0.976264 22.8282 0.685053C20.8665 0.156006 12.9999 0.156006 12.9999 0.156006C12.9999 0.156006 5.13342 0.156006 3.17156 0.685053C2.08924 0.976264 1.23683 1.83426 0.947531 2.92358C0.421875 4.89807 0.421875 9.01784 0.421875 9.01784C0.421875 9.01784 0.421875 13.1377 0.947531 15.1121C1.23683 16.2015 2.08924 17.0237 3.17156 17.315C5.13342 17.844 12.9999 17.844 12.9999 17.844C12.9999 17.844 20.8665 17.844 22.8282 17.315C23.9106 17.0237 24.763 16.2015 25.0524 15.1121C25.578 13.1377 25.578 9.01784 25.578 9.01784C25.578 9.01784 25.578 4.89807 25.0524 2.92358ZM10.4271 12.7583V5.27744L17.002 9.01795L10.4271 12.7583Z" fill="white"/>
</svg>
