<svg width="67" height="69" viewBox="0 0 67 69" fill="none" xmlns="http://www.w3.org/2000/svg">
<path d="M11.3278 63.9833L8.85783 69L0 51.3142H4.7696L11.3278 63.9833ZM14.1385 56.1608C14.0533 55.5656 13.7978 54.9704 13.5423 54.3752C13.2867 53.865 12.8609 53.3549 12.3499 52.7597C11.8388 52.1645 11.1575 51.7393 10.3057 51.3142H14.2236H18.2267C17.5453 51.8244 16.864 52.3345 16.3529 52.9297C15.8419 53.5249 15.416 54.0351 15.0754 54.5453C14.7347 54.9704 14.394 55.5656 14.1385 56.1608Z" fill="white"/>
<path d="M22.0595 68.9999C21.1227 68.9999 20.2709 68.7448 19.3341 68.3196C18.3972 67.8945 17.6306 67.2143 16.9493 66.364C16.2679 65.5137 15.6717 64.5784 15.2458 63.5581C14.82 62.4527 14.5645 61.3474 14.5645 60.072C14.5645 58.8816 14.82 57.6912 15.2458 56.5858C15.6717 55.4805 16.2679 54.5452 17.0344 53.7799C17.801 53.0147 18.5675 52.3344 19.5044 51.8243C20.4413 51.3141 21.293 51.144 22.2299 51.144C21.8892 51.4842 21.6337 51.9943 21.293 52.5895C20.9523 53.1847 20.6968 53.8649 20.4413 54.6302C20.1858 55.3954 19.9303 56.2457 19.7599 57.181C19.5896 58.1163 19.5044 59.0516 19.5044 60.072C19.5044 61.0923 19.5896 62.0276 19.7599 62.9629C19.9303 63.8982 20.1006 64.7485 20.3561 65.5137C20.6116 66.279 20.8671 66.9592 21.2078 67.5544C21.3782 68.1496 21.7189 68.6598 22.0595 68.9999ZM25.8071 51.144C26.744 51.144 27.5957 51.3991 28.5326 51.8243C29.4695 52.2494 30.236 52.9296 30.9174 53.7799C31.5987 54.6302 32.1949 55.5655 32.6208 56.5858C33.0467 57.6912 33.3022 58.7965 33.3022 60.072C33.3022 61.2623 33.0467 62.4527 32.6208 63.5581C32.1949 64.6634 31.5987 65.5988 30.8322 66.364C30.0657 67.1293 29.2991 67.8095 28.3622 68.3196C27.4253 68.8298 26.5736 68.9999 25.6367 68.9999C25.9774 68.6598 26.2329 68.1496 26.5736 67.5544C26.9143 66.9592 27.1698 66.279 27.5105 65.5137C27.766 64.7485 28.0215 63.8982 28.1919 62.9629C28.3622 62.0276 28.4474 61.0923 28.4474 60.072C28.4474 59.0516 28.3622 58.1163 28.1919 57.181C28.0215 56.2457 27.8512 55.3954 27.5957 54.6302C27.3402 53.8649 27.0847 53.1847 26.744 52.5895C26.4033 51.9943 26.0626 51.5692 25.8071 51.144Z" fill="white"/>
<path d="M41.2231 68.9999C40.2862 68.9999 39.4345 68.7448 38.4976 68.3196C37.5607 67.8945 36.7942 67.2143 36.1128 66.364C35.4315 65.5137 34.8353 64.5784 34.4094 63.5581C33.9835 62.4527 33.728 61.3474 33.728 60.072C33.728 58.8816 33.9835 57.6912 34.4094 56.5858C34.8353 55.4805 35.4315 54.5452 36.198 53.7799C36.9645 53.0147 37.7311 52.3344 38.668 51.8243C39.6049 51.3141 40.4566 51.144 41.3935 51.144C41.0528 51.4842 40.7973 51.9943 40.4566 52.5895C40.1159 53.1847 39.8604 53.8649 39.6049 54.6302C39.3493 55.3954 39.0938 56.2457 38.9235 57.181C38.7531 58.1163 38.668 59.0516 38.668 60.072C38.668 61.0923 38.7531 62.0276 38.9235 62.9629C39.0938 63.8982 39.2642 64.7485 39.5197 65.5137C39.7752 66.279 40.0307 66.9592 40.3714 67.5544C40.6269 68.1496 40.9676 68.6598 41.2231 68.9999ZM44.9707 51.144C45.9075 51.144 46.7593 51.3991 47.6961 51.8243C48.633 52.2494 49.3996 52.9296 50.0809 53.7799C50.7623 54.6302 51.3585 55.5655 51.7844 56.5858C52.2102 57.6912 52.4657 58.7965 52.4657 60.072C52.4657 61.2623 52.2102 62.4527 51.7844 63.5581C51.3585 64.6634 50.7623 65.5988 49.9958 66.364C49.2292 67.1293 48.4627 67.8095 47.5258 68.3196C46.5889 68.8298 45.7372 68.9999 44.8003 68.9999C45.141 68.6598 45.3965 68.1496 45.7372 67.5544C46.0779 66.9592 46.3334 66.279 46.6741 65.5137C46.9296 64.7485 47.1851 63.8982 47.3555 62.9629C47.5258 62.0276 47.611 61.0923 47.611 60.072C47.611 59.0516 47.5258 58.1163 47.3555 57.181C47.1851 56.2457 47.0148 55.3954 46.7593 54.6302C46.5037 53.8649 46.2482 53.1847 45.9075 52.5895C45.652 51.9943 45.3113 51.5692 44.9707 51.144Z" fill="white"/>
<path d="M52.9766 63.5583C53.3172 64.0684 53.6579 64.5786 54.0838 65.0037C54.4245 65.4289 54.8503 65.854 55.2762 66.1941C55.702 66.5342 56.1279 66.8744 56.4686 67.1294C56.8944 67.3845 57.2351 67.6396 57.661 67.8097C58.5127 68.3198 59.4496 68.6599 60.3865 68.915H52.9766V63.5583ZM61.8344 58.6267C62.6009 58.9668 63.3675 59.3919 63.9637 59.9021C64.5599 60.4122 65.1561 61.0074 65.5819 61.6877C66.0078 62.3679 66.3485 63.0481 66.5188 63.8134C66.6892 64.5786 66.7743 65.3438 66.7743 66.1941L58.9386 63.0481C58.172 62.708 57.4055 62.2829 56.6389 61.7727C55.8724 61.1775 55.2762 60.5823 54.7652 59.9021C54.2541 59.2219 53.8283 58.4566 53.4876 57.6914C53.1469 56.9261 53.0617 56.0758 53.1469 55.3106L61.8344 58.6267ZM66.7743 55.4806C66.6892 55.7357 66.5188 55.9908 66.2633 56.2459C66.0078 56.4159 65.8375 56.586 65.5819 56.671C65.3264 56.7561 65.0709 56.8411 64.7302 56.8411C64.4747 56.8411 64.134 56.7561 63.8785 56.671C63.623 56.586 63.3675 56.4159 63.112 56.1609C62.9416 55.9058 62.7713 55.7357 62.6009 55.3956C62.5158 55.1405 62.4306 54.8854 62.4306 54.5453C62.4306 54.2902 62.5158 53.9501 62.6009 53.6951C62.7713 53.2699 62.8565 52.9298 62.8565 52.5897C62.8565 52.2496 62.7713 51.9945 62.6861 51.8244C62.6009 51.5694 62.4306 51.3993 62.1751 51.2292C62.5158 51.2292 62.9416 51.2292 63.2823 51.3143C63.623 51.3993 63.9637 51.4843 64.3895 51.6544C64.8154 51.8244 65.2413 52.0795 65.5819 52.3346C66.9447 53.2699 67.2854 54.3753 66.7743 55.4806Z" fill="white"/>
<path d="M53.4024 30.0573L48.3773 16.1128C48.3773 16.0277 48.2921 16.0277 48.2921 15.9427L34.2388 0.127542C34.0685 -0.0425139 33.7278 -0.0425139 33.5575 0.127542L19.6745 15.9427C19.6745 15.9427 19.5893 16.0277 19.5893 16.1128L14.5642 30.0573C14.479 30.1423 14.5642 30.3124 14.5642 30.3974L21.9741 42.0462C22.0593 42.1312 22.2297 42.2163 22.3148 42.2163H45.5666C45.737 42.2163 45.8221 42.1312 45.9073 42.0462L53.3172 30.3974C53.4024 30.3124 53.4876 30.1423 53.4024 30.0573ZM52.3804 29.8022H34.9202L47.6959 17.0481L52.3804 29.8022ZM34.4092 1.48798L47.3552 16.1978L34.4092 29.122V1.48798ZM33.5575 29.207L20.5262 16.1978L33.4723 1.48798V29.207H33.5575ZM20.1004 16.963L32.8761 29.7172H15.5011L20.1004 16.963ZM15.6714 30.6525H32.8761L22.4 41.1109L15.6714 30.6525ZM33.9833 30.8225L44.6297 41.451H23.3369L33.9833 30.8225ZM45.4815 41.1109L34.9202 30.5675H52.21L45.4815 41.1109Z" fill="white"/>
</svg>
