<svg width="16" height="20" viewBox="0 0 16 20" fill="none" xmlns="http://www.w3.org/2000/svg">
<path fill-rule="evenodd" clip-rule="evenodd" d="M8.22083 0.250003L8.0657 0.249979C6.68476 0.249637 5.80206 0.249418 5.05192 0.50643C3.80592 0.93333 2.79311 1.85842 2.25539 3.06075C1.93166 3.78461 1.85213 4.66371 1.72771 6.03904L1.71372 6.19354L1.18292 12.0447L1.1799 12.078C1.07651 13.2176 0.994767 14.1187 0.988225 14.8467C0.981553 15.5893 1.05071 16.2224 1.29216 16.8087C1.71796 17.8427 2.49492 18.6933 3.48623 19.2108C4.04835 19.5042 4.67262 19.6303 5.41277 19.6908C6.13839 19.75 7.04319 19.75 8.18753 19.75H8.22083H8.25413C9.39847 19.75 10.3033 19.75 11.0289 19.6908C11.769 19.6303 12.3933 19.5042 12.9554 19.2108C13.9467 18.6933 14.7237 17.8427 15.1495 16.8087C15.3909 16.2224 15.4601 15.5893 15.4534 14.8467C15.4469 14.1187 15.3651 13.2176 15.2618 12.0779L15.2587 12.0447L14.7279 6.19354L14.714 6.03905V6.03904C14.5895 4.66371 14.51 3.78461 14.1863 3.06075C13.6485 1.85842 12.6357 0.93333 11.3897 0.50643C10.6396 0.249418 9.7569 0.249637 8.37596 0.249979L8.22083 0.250003ZM5.5381 1.92545C6.02076 1.76009 6.63074 1.75 8.22083 1.75C9.81091 1.75 10.4209 1.76009 10.9036 1.92545C11.7561 2.21754 12.4491 2.8505 12.817 3.67315C13.0253 4.13889 13.0904 4.74547 13.2341 6.32906L13.7649 12.1803C13.8719 13.3604 13.9476 14.2006 13.9535 14.8601C13.9594 15.5121 13.8947 15.9166 13.7625 16.2375C13.4712 16.945 12.9396 17.527 12.2613 17.8811C11.9536 18.0417 11.5567 18.1427 10.9068 18.1957C10.2494 18.2494 9.40586 18.25 8.22083 18.25C7.03579 18.25 6.19225 18.2494 5.53486 18.1957C4.885 18.1427 4.48806 18.0417 4.18036 17.8811C3.5021 17.527 2.9705 16.945 2.67916 16.2375C2.54699 15.9166 2.48231 15.5121 2.48816 14.8601C2.49409 14.2006 2.56972 13.3604 2.67678 12.1803L3.20758 6.32905C3.35124 4.74547 3.41639 4.13889 3.62469 3.67315C3.9926 2.8505 4.68558 2.21754 5.5381 1.92545ZM6.66565 7.69474C6.66565 8.55369 7.36196 9.25 8.22091 9.25C9.07986 9.25 9.77617 8.55369 9.77617 7.69474V5C9.77617 4.58579 10.112 4.25 10.5262 4.25C10.9404 4.25 11.2762 4.58579 11.2762 5V7.69474C11.2762 9.38212 9.90829 10.75 8.22091 10.75C6.53354 10.75 5.16565 9.38212 5.16565 7.69474V5C5.16565 4.58579 5.50143 4.25 5.91565 4.25C6.32986 4.25 6.66565 4.58579 6.66565 5V7.69474Z" fill="black"/>
</svg>
