<svg width="14" height="17" viewBox="0 0 14 17" fill="none" xmlns="http://www.w3.org/2000/svg">
<path fill-rule="evenodd" clip-rule="evenodd" d="M1.75 7.6111C1.75 5.77281 2.41985 4.45152 3.37837 3.58373C4.34965 2.70438 5.66357 2.24997 7 2.24997C8.33643 2.24997 9.65035 2.7044 10.6216 3.58375C11.5801 4.45154 12.25 5.77283 12.25 7.6111C12.25 10.6859 9.86166 13.277 8.10243 14.7491C7.67734 15.1048 7.57993 15.1758 7.34404 15.2434C7.29608 15.2571 7.16995 15.2755 7.00016 15.2755C6.83036 15.2755 6.70423 15.2571 6.65627 15.2434C6.42038 15.1759 6.32296 15.1048 5.89786 14.7491C4.13852 13.2771 1.75 10.686 1.75 7.6111ZM13.75 7.6111C13.75 5.37531 12.9199 3.64103 11.6284 2.47177C10.3496 1.31408 8.66357 0.749974 7 0.749969C5.33643 0.749965 3.65035 1.31406 2.37163 2.47176C1.08015 3.64101 0.25 5.37529 0.25 7.6111C0.25 11.4136 3.13926 14.3968 4.93529 15.8996L4.97304 15.9312C5.36424 16.2588 5.68174 16.5247 6.24364 16.6855C6.48041 16.7532 6.76213 16.7755 7.00018 16.7755C7.23823 16.7755 7.51995 16.7532 7.75672 16.6855C8.31861 16.5247 8.6361 16.2588 9.02729 15.9311L9.06504 15.8995C10.861 14.3967 13.75 11.4136 13.75 7.6111ZM5.5 7.5C5.5 6.67157 6.17157 6 7 6C7.82843 6 8.5 6.67157 8.5 7.5C8.5 8.32843 7.82843 9 7 9C6.17157 9 5.5 8.32843 5.5 7.5ZM7 4.5C5.34315 4.5 4 5.84314 4 7.5C4 9.15685 5.34315 10.5 7 10.5C8.65685 10.5 10 9.15685 10 7.5C10 5.84314 8.65685 4.5 7 4.5Z" fill="white"/>
</svg>
