<svg width="80" height="22" viewBox="0 0 80 22" fill="none" xmlns="http://www.w3.org/2000/svg">
<path d="M13.5257 15.3937L10.5765 21.4084L0 0.203903H5.69505L13.5257 15.3937ZM16.8818 6.01477C16.7801 5.30115 16.475 4.58754 16.1699 3.87393C15.8648 3.26226 15.3563 2.65059 14.7461 1.93697C14.1359 1.22336 13.3223 0.713628 12.3054 0.203903H16.9834H21.7632C20.9496 0.815573 20.1361 1.42724 19.5259 2.14086C18.9157 2.85447 18.4072 3.46614 18.0004 4.07781C17.5936 4.58754 17.1868 5.30115 16.8818 6.01477Z" fill="black"/>
<path d="M26.3395 21.4084C25.2208 21.4084 24.2039 21.1026 23.0852 20.5929C21.9665 20.0831 21.0512 19.2676 20.2377 18.2481C19.4241 17.2287 18.7122 16.1073 18.2037 14.884C17.6952 13.5587 17.3901 12.2334 17.3901 10.7042C17.3901 9.27699 17.6952 7.84976 18.2037 6.52448C18.7122 5.19919 19.4241 4.07779 20.3394 3.16029C21.2546 2.24279 22.1699 1.42723 23.2886 0.815562C24.4072 0.203893 25.4242 0 26.5429 0C26.1361 0.40778 25.831 1.01945 25.4242 1.73306C25.0174 2.44667 24.7123 3.26224 24.4073 4.17974C24.1022 5.09724 23.7971 6.11669 23.5937 7.23809C23.3903 8.35948 23.2886 9.48088 23.2886 10.7042C23.2886 11.9276 23.3903 13.0489 23.5937 14.1703C23.7971 15.2917 24.0005 16.3112 24.3055 17.2287C24.6106 18.1462 24.9157 18.9618 25.3225 19.6754C25.5259 20.389 25.9327 21.0006 26.3395 21.4084ZM30.8142 0C31.9328 0 32.9498 0.305838 34.0685 0.815562C35.1872 1.32529 36.1024 2.14084 36.916 3.16029C37.7296 4.17974 38.4415 5.30114 38.95 6.52448C39.4584 7.84976 39.7635 9.17504 39.7635 10.7042C39.7635 12.1314 39.4584 13.5587 38.95 14.884C38.4415 16.2092 37.7296 17.3306 36.8143 18.2481C35.899 19.1656 34.9838 19.9812 33.8651 20.5929C32.7464 21.2045 31.7295 21.4084 30.6108 21.4084C31.0176 21.0006 31.3227 20.389 31.7295 19.6754C32.1362 18.9618 32.4413 18.1462 32.8481 17.2287C33.1532 16.3112 33.4583 15.2917 33.6617 14.1703C33.8651 13.0489 33.9668 11.9276 33.9668 10.7042C33.9668 9.48088 33.8651 8.35948 33.6617 7.23809C33.4583 6.11669 33.2549 5.09724 32.9498 4.17974C32.6447 3.26224 32.3396 2.44667 31.9328 1.73306C31.5261 1.01945 31.1193 0.509724 30.8142 0Z" fill="black"/>
<path d="M49.2213 21.4084C48.1027 21.4084 47.0857 21.1026 45.967 20.5929C44.8483 20.0831 43.9331 19.2676 43.1195 18.2481C42.3059 17.2287 41.594 16.1073 41.0855 14.884C40.5771 13.5587 40.272 12.2334 40.272 10.7042C40.272 9.27699 40.5771 7.84976 41.0855 6.52448C41.594 5.19919 42.3059 4.07779 43.2212 3.16029C44.1365 2.24279 45.0517 1.42723 46.1704 0.815562C47.2891 0.203893 48.3061 0 49.4247 0C49.0179 0.40778 48.7128 1.01945 48.3061 1.73306C47.8993 2.44667 47.5942 3.26224 47.2891 4.17974C46.984 5.09724 46.6789 6.11669 46.4755 7.23809C46.2721 8.35948 46.1704 9.48088 46.1704 10.7042C46.1704 11.9276 46.2721 13.0489 46.4755 14.1703C46.6789 15.2917 46.8823 16.3112 47.1874 17.2287C47.4925 18.1462 47.7976 18.9618 48.2044 19.6754C48.5094 20.389 48.9162 21.0006 49.2213 21.4084ZM53.696 0C54.8147 0 55.8317 0.305838 56.9503 0.815562C58.069 1.32529 58.9843 2.14084 59.7978 3.16029C60.6114 4.17974 61.3233 5.30114 61.8318 6.52448C62.3403 7.84976 62.6454 9.17504 62.6454 10.7042C62.6454 12.1314 62.3403 13.5587 61.8318 14.884C61.3233 16.2092 60.6114 17.3306 59.6961 18.2481C58.7809 19.1656 57.8656 19.9812 56.7469 20.5929C55.6283 21.2045 54.6113 21.4084 53.4926 21.4084C53.8994 21.0006 54.2045 20.389 54.6113 19.6754C55.0181 18.9618 55.3232 18.1462 55.73 17.2287C56.035 16.3112 56.3401 15.2917 56.5435 14.1703C56.7469 13.0489 56.8486 11.9276 56.8486 10.7042C56.8486 9.48088 56.7469 8.35948 56.5435 7.23809C56.3401 6.11669 56.1367 5.09724 55.8316 4.17974C55.5266 3.26224 55.2215 2.44667 54.8147 1.73306C54.5096 1.01945 54.1028 0.509724 53.696 0Z" fill="black"/>
<path d="M63.2559 14.884C63.6626 15.4956 64.0694 16.1073 64.5779 16.617C64.9847 17.1268 65.4932 17.6365 66.0017 18.0443C66.5102 18.452 67.0187 18.8598 67.4254 19.1657C67.9339 19.4715 68.3407 19.7773 68.8492 19.9812C69.8662 20.5929 70.9848 21.0007 72.1035 21.3065H63.2559V14.884ZM73.8324 8.97117C74.7476 9.37895 75.6629 9.88868 76.3748 10.5003C77.0867 11.112 77.7986 11.8256 78.3071 12.6412C78.8155 13.4567 79.2223 14.2723 79.4257 15.1898C79.6291 16.1073 79.7308 17.0248 79.7308 18.0443L70.3747 14.2723C69.4594 13.8645 68.5441 13.3548 67.6288 12.7431C66.7136 12.0295 66.0017 11.3159 65.3915 10.5003C64.7813 9.68479 64.2728 8.76728 63.866 7.84977C63.4593 6.93227 63.3576 5.91282 63.4593 4.99532L73.8324 8.97117ZM79.7308 5.19921C79.6291 5.50504 79.4257 5.81088 79.1206 6.11671C78.8155 6.3206 78.6121 6.52449 78.3071 6.62644C78.002 6.72838 77.6969 6.83032 77.2901 6.83032C76.985 6.83032 76.5782 6.72838 76.2731 6.62644C75.968 6.52449 75.6629 6.3206 75.3578 6.01477C75.1544 5.70893 74.951 5.50504 74.7477 5.09726C74.646 4.79143 74.5443 4.48559 74.5443 4.07781C74.5443 3.77198 74.646 3.3642 74.7477 3.05836C74.951 2.54864 75.0527 2.14086 75.0527 1.73308C75.0527 1.3253 74.951 1.01947 74.8493 0.815578C74.7476 0.509744 74.5443 0.305849 74.2392 0.101959C74.646 0.101959 75.1544 0.101958 75.5612 0.203903C75.968 0.305848 76.3748 0.407794 76.8833 0.611684C77.3918 0.815574 77.9003 1.12141 78.3071 1.42725C79.9342 2.54864 80.341 3.87392 79.7308 5.19921Z" fill="black"/>
</svg>
