<svg width="66" height="66" viewBox="0 0 66 66" fill="none" xmlns="http://www.w3.org/2000/svg">
<circle cx="33" cy="33" r="31" stroke="#E40E0E" stroke-width="4"/>
<path d="M17.8077 28.6V26.149H22.3867V40H19.6507V28.6H17.8077ZM27.3324 32.666C26.0658 32.0073 25.4324 30.9877 25.4324 29.607C25.4324 28.923 25.6034 28.3023 25.9454 27.745C26.3001 27.175 26.8258 26.7253 27.5224 26.396C28.2318 26.054 29.0931 25.883 30.1064 25.883C31.1198 25.883 31.9748 26.054 32.6714 26.396C33.3808 26.7253 33.9064 27.175 34.2484 27.745C34.6031 28.3023 34.7804 28.923 34.7804 29.607C34.7804 30.3037 34.6094 30.918 34.2674 31.45C33.9254 31.9693 33.4694 32.3747 32.8994 32.666C33.5961 32.97 34.1408 33.4133 34.5334 33.996C34.9261 34.5787 35.1224 35.269 35.1224 36.067C35.1224 36.9283 34.9008 37.682 34.4574 38.328C34.0268 38.9613 33.4314 39.449 32.6714 39.791C31.9114 40.133 31.0564 40.304 30.1064 40.304C29.1564 40.304 28.3014 40.133 27.5414 39.791C26.7941 39.449 26.1988 38.9613 25.7554 38.328C25.3248 37.682 25.1094 36.9283 25.1094 36.067C25.1094 35.269 25.3058 34.5787 25.6984 33.996C26.0911 33.4007 26.6358 32.9573 27.3324 32.666ZM32.1964 29.987C32.1964 29.3663 32.0064 28.885 31.6264 28.543C31.2591 28.201 30.7524 28.03 30.1064 28.03C29.4731 28.03 28.9664 28.201 28.5864 28.543C28.2191 28.885 28.0354 29.3727 28.0354 30.006C28.0354 30.576 28.2254 31.032 28.6054 31.374C28.9981 31.716 29.4984 31.887 30.1064 31.887C30.7144 31.887 31.2148 31.716 31.6074 31.374C32.0001 31.0193 32.1964 30.557 32.1964 29.987ZM30.1064 33.825C29.3844 33.825 28.7954 34.0087 28.3394 34.376C27.8961 34.7433 27.6744 35.269 27.6744 35.953C27.6744 36.5863 27.8898 37.1057 28.3204 37.511C28.7638 37.9037 29.3591 38.1 30.1064 38.1C30.8538 38.1 31.4428 37.8973 31.8734 37.492C32.3041 37.0867 32.5194 36.5737 32.5194 35.953C32.5194 35.2817 32.2978 34.7623 31.8544 34.395C31.4111 34.015 30.8284 33.825 30.1064 33.825ZM47.4644 34.395H43.8734V38.081H41.3654V34.395H37.7744V32.077H41.3654V28.391H43.8734V32.077H47.4644V34.395Z" fill="#E40E0E"/>
</svg>
