<svg width="121" height="30" viewBox="0 0 121 30" fill="none" xmlns="http://www.w3.org/2000/svg">
<path d="M31.1277 0.702128V1.71277H27.6915L16.9282 29H15.6144L2.93085 1.71277H0.505319V0.702128H14.8059V1.71277H12.3298L19.7074 18.641L26.3777 1.71277H22.3351V0.702128H31.1277ZM53.9164 14.8005C53.9164 10.4885 53.3268 7.13652 52.1478 4.74468C51.0024 2.31915 49.4022 1.10638 47.3472 1.10638C45.3259 1.10638 43.7258 2.31915 42.5467 4.74468C41.3676 7.17021 40.7781 10.5559 40.7781 14.9016C40.7781 19.2473 41.3339 22.5993 42.4456 24.9574C43.591 27.3156 45.2249 28.4947 47.3472 28.4947C51.7267 28.4947 53.9164 23.93 53.9164 14.8005ZM62.052 15.1037C62.052 19.719 60.6876 23.273 57.9589 25.766C55.2302 28.2589 51.6761 29.5053 47.2967 29.5053C42.9173 29.5053 39.38 28.2757 36.685 25.8165C33.99 23.3236 32.6424 19.7695 32.6424 15.1543C32.6424 10.5053 33.99 6.83333 36.685 4.1383C39.38 1.44326 42.9509 0.095744 47.3978 0.095744C51.8782 0.095744 55.4323 1.44326 58.06 4.1383C60.7213 6.79965 62.052 10.4548 62.052 15.1037ZM85.3508 14.8005C85.3508 10.4885 84.7612 7.13652 83.5822 4.74468C82.4368 2.31915 80.8366 1.10638 78.7816 1.10638C76.7603 1.10638 75.1602 2.31915 73.9811 4.74468C72.802 7.17021 72.2125 10.5559 72.2125 14.9016C72.2125 19.2473 72.7683 22.5993 73.88 24.9574C75.0254 27.3156 76.6593 28.4947 78.7816 28.4947C83.1611 28.4947 85.3508 23.93 85.3508 14.8005ZM93.4864 15.1037C93.4864 19.719 92.122 23.273 89.3933 25.766C86.6646 28.2589 83.1105 29.5053 78.7311 29.5053C74.3517 29.5053 70.8144 28.2757 68.1194 25.8165C65.4244 23.3236 64.0768 19.7695 64.0768 15.1543C64.0768 10.5053 65.4244 6.83333 68.1194 4.1383C70.8144 1.44326 74.3853 0.095744 78.8322 0.095744C83.3127 0.095744 86.8667 1.44326 89.4944 4.1383C92.1557 6.79965 93.4864 10.4548 93.4864 15.1037ZM98.5431 29H97.5325V17.2261H98.5431C98.5431 20.3927 99.6717 23.0878 101.929 25.3112C104.22 27.5346 106.999 28.6463 110.267 28.6463C111.614 28.6463 112.692 28.2589 113.501 27.484C114.343 26.6755 114.764 25.6144 114.764 24.3005C114.764 22.8183 113.804 21.555 111.884 20.5106C110.839 19.9716 109.037 19.1294 106.477 17.984C103.916 16.805 102.114 15.8112 101.07 15.0027C98.9811 13.3856 98.0547 11.2465 98.2905 8.58511C98.56 5.92376 99.5706 3.86879 101.322 2.42021C103.074 0.937942 105.045 0.196807 107.235 0.196807C109.458 0.196807 111.446 0.499998 113.197 1.10638C114.983 1.67908 115.994 1.96542 116.229 1.96542C116.903 1.96542 117.24 1.37589 117.24 0.196807H118.251V9.44415H117.24C117.24 7.01862 116.347 5.04787 114.562 3.53192C112.776 1.98227 110.486 1.20745 107.689 1.20745C106.443 1.20745 105.466 1.57801 104.759 2.31915C104.051 3.0266 103.697 3.81826 103.697 4.69415C103.697 5.57003 103.815 6.24379 104.051 6.71543C104.287 7.18706 104.691 7.625 105.264 8.02925C105.87 8.39982 106.392 8.70301 106.83 8.93883C107.268 9.17465 107.959 9.49468 108.902 9.89894C109.879 10.3032 110.553 10.5895 110.923 10.758C112.776 11.6002 113.871 12.1055 114.208 12.2739C114.545 12.4087 115.033 12.6445 115.673 12.9814C116.314 13.3183 116.785 13.6215 117.088 13.891C117.425 14.1605 117.846 14.4973 118.352 14.9016C118.857 15.3059 119.228 15.7269 119.463 16.1649C119.699 16.5691 119.935 17.0408 120.171 17.5798C120.642 18.6578 120.811 19.9211 120.676 21.3697C120.407 24.0984 119.379 26.1871 117.594 27.6356C115.842 29.0505 113.467 29.758 110.469 29.758C107.774 29.758 105.095 29.0674 102.434 27.6862C101.525 27.2145 100.851 26.9787 100.413 26.9787C99.1664 26.9787 98.5431 27.6525 98.5431 29Z" fill="black"/>
</svg>
